<?xml version="1.0" standalone="no"?>
<!DOCTYPE svg PUBLIC "-//W3C//DTD SVG 20010904//EN"
 "http://www.w3.org/TR/2001/REC-SVG-20010904/DTD/svg10.dtd">
<svg version="1.0" xmlns="http://www.w3.org/2000/svg"
 width="1000.000000pt" height="1000.000000pt" viewBox="0 0 1000.000000 1000.000000"
 preserveAspectRatio="xMidYMid meet">

<g transform="translate(0.000000,1000.000000) scale(0.100000,-0.100000)"
fill="#000000" stroke="none">
<path d="M1137 5713 c-4 -3 -7 -339 -7 -745 l0 -738 290 0 290 0 -2 743 -3
742 -281 3 c-154 1 -283 -1 -287 -5z"/>
<path d="M1900 4975 l0 -745 327 0 326 0 -6 113 c-6 115 -24 192 -59 261 -31
61 -115 144 -186 183 l-65 36 58 29 c67 35 144 108 174 166 47 91 64 250 40
364 -32 154 -123 250 -284 301 -57 19 -194 37 -272 37 l-53 0 0 -745z"/>
<path d="M3980 4975 l0 -745 288 2 287 3 3 743 2 742 -290 0 -290 0 0 -745z"/>
<path d="M4877 5713 c-4 -3 -7 -339 -7 -745 l0 -738 290 0 290 0 -2 743 -3
742 -281 3 c-154 1 -283 -1 -287 -5z"/>
<path d="M5678 5714 c-5 -4 -8 -340 -8 -746 l0 -738 295 0 295 0 0 560 c0 372
-4 577 -11 612 -34 162 -136 259 -312 297 -60 13 -251 24 -259 15z"/>
<path d="M7647 5713 c-4 -3 -7 -336 -7 -740 l0 -733 43 -2 c115 -4 476 -4 505
0 l32 4 -2 737 -3 736 -281 3 c-154 1 -283 -1 -287 -5z"/>
<path d="M8418 5714 c-5 -4 -8 -340 -8 -747 l0 -740 105 6 c164 10 269 54 362
149 144 148 216 429 192 756 -23 327 -140 496 -384 556 -70 17 -257 31 -267
20z"/>
</g>
</svg>
